<svg width="16" height="16" viewBox="0 0 16 16" fill="none" xmlns="http://www.w3.org/2000/svg">
<path fill-rule="evenodd" clip-rule="evenodd" d="M7.99991 1.3335C8.87539 1.33349 9.7423 1.50593 10.5511 1.84096C11.36 2.17599 12.0949 2.66705 12.714 3.2861C13.333 3.90516 13.8241 4.64009 14.1591 5.44893C14.4942 6.25776 14.6666 7.12467 14.6666 8.00015C14.6666 11.6821 11.6818 14.6668 7.99991 14.6668C4.31803 14.6668 1.33325 11.6821 1.33325 8.00015C1.33325 4.31828 4.31803 1.3335 7.99991 1.3335ZM8.6666 8.66684H7.33325C5.68278 8.66684 4.26581 9.66643 3.65466 11.0933C4.62166 12.4493 6.20753 13.3335 7.99991 13.3335C9.79228 13.3335 11.3782 12.4493 12.3452 11.0932C11.734 9.66643 10.3171 8.66684 8.6666 8.66684ZM7.99991 3.3335C6.89535 3.3335 5.99991 4.22893 5.99991 5.3335C5.99991 6.43806 6.89535 7.3335 7.99991 7.3335C9.10447 7.3335 9.99991 6.43806 9.99991 5.3335C9.99991 4.22893 9.1045 3.3335 7.99991 3.3335Z" fill="black"/>
</svg>
